<?xml version="1.0" encoding="UTF-8" standalone="no"?>
<!-- Created with Inkscape (http://www.inkscape.org/) -->

<svg
   xmlns:dc="http://purl.org/dc/elements/1.1/"
   xmlns:cc="http://creativecommons.org/ns#"
   xmlns:rdf="http://www.w3.org/1999/02/22-rdf-syntax-ns#"
   xmlns:svg="http://www.w3.org/2000/svg"
   xmlns="http://www.w3.org/2000/svg"
   xmlns:sodipodi="http://sodipodi.sourceforge.net/DTD/sodipodi-0.dtd"
   xmlns:inkscape="http://www.inkscape.org/namespaces/inkscape"
   width="393.97653"
   height="363.42227"
   id="svg2"
   version="1.1"
   inkscape:version="0.47 r22583"
   sodipodi:docname="Love_Heart_symbol.svg">
  <defs
     id="defs4">
    <inkscape:perspective
       sodipodi:type="inkscape:persp3d"
       inkscape:vp_x="0 : 526.18109 : 1"
       inkscape:vp_y="0 : 1000 : 0"
       inkscape:vp_z="744.09448 : 526.18109 : 1"
       inkscape:persp3d-origin="372.04724 : 350.78739 : 1"
       id="perspective10" />
  </defs>
  <sodipodi:namedview
     id="base"
     pagecolor="#ffffff"
     bordercolor="#666666"
     borderopacity="1.0"
     inkscape:pageopacity="0.0"
     inkscape:pageshadow="2"
     inkscape:zoom="1.4197764"
     inkscape:cx="196.9844"
     inkscape:cy="181.70352"
     inkscape:document-units="px"
     inkscape:current-layer="layer1"
     showgrid="false"
     inkscape:window-width="1280"
     inkscape:window-height="744"
     inkscape:window-x="-4"
     inkscape:window-y="-4"
     inkscape:window-maximized="1" />
  <metadata
     id="metadata7">
    <rdf:RDF>
      <cc:Work
         rdf:about="">
        <dc:format>image/svg+xml</dc:format>
        <dc:type
           rdf:resource="http://purl.org/dc/dcmitype/StillImage" />
        <dc:title></dc:title>
      </cc:Work>
    </rdf:RDF>
  </metadata>
  <g
     inkscape:label="Layer 1"
     inkscape:groupmode="layer"
     id="layer1"
     transform="translate(-95.190366,-433.42145)">
    <path
       style="fill:#e30a17;fill-opacity:1;fill-rule:nonzero;stroke:none"
       d="m 371.65912,433.42145 c 0.27429,0.78134 0.56448,1.56902 0.8125,2.34375 2.66673,3.65164 2.84925,8.45698 4.1875,12.625 0.21868,4.47395 2.53606,8.45708 3.21875,12.84375 0.64162,4.70754 3.66347,9.10363 5.1875,13.78125 3.37244,3.22942 2.9173,10.14595 6.1875,14.375 1.8716,4.8898 2.19567,10.01999 4,15.03125 -0.25715,1.41265 1.47372,4.24642 0.75,8.09375 1.34384,3.64705 2.4444,5.48739 5.34375,7.96875 3.89738,3.8246 5.37336,3.90042 9.5,7.3125 4.3567,3.01189 8.69669,6.51462 12.71875,10.125 3.88232,3.34574 7.53687,7.67013 9.625,11.5 0.15882,0.11857 0.29374,0.23957 0.4375,0.375 2.99687,-0.73602 6.6191,0.0697 9.65625,-0.25 7.2387,-0.29934 14.31515,-2.15201 21.3125,-3.78125 5.92711,-2.43809 12.20068,-3.63222 17.75,-6.90625 2.06214,-0.72922 4.03528,-1.58426 5.96875,-2.5 -7.02024,-57.986 -56.40231,-102.9375 -116.28125,-102.9375 -0.12599,0 -0.2491,-4e-4 -0.375,0 z"
       id="path3822" />
    <path
       style="fill:#e30a17;fill-opacity:1;fill-rule:nonzero;stroke:none"
       d="m 370.53412,433.4527 c 0.39267,0.41918 0.48373,0.41585 0,0 z"
       id="path3820" />
    <path
       style="fill:#e30a17;fill-opacity:1;fill-rule:nonzero;stroke:none"
       d="m 360.28412,434.0152 c -26.58366,2.65208 -50.57101,14.18497 -68.90625,31.59375 -20.83459,-19.05825 -48.56948,-30.6875 -79.03125,-30.6875 -33.42311,0 -63.59198,14.0125 -84.9375,36.46875 2.89788,1.89674 5.82738,3.74878 8.84375,5.5 15.68227,8.38911 31.48852,17.1718 48.78125,22.25 22.90655,9.9315 47.17271,19.11339 65.78125,36.28125 7.60468,10.06179 10.7322,22.672 13.90625,34.78125 -0.98688,13.42837 8.67114,23.296 19.1875,30.1875 15.8798,9.57267 32.69014,17.57106 49.34375,25.90625 0.31921,-1.62354 0.94474,-3.1712 1.75,-4.46875 2.08328,-4.83707 6.70685,-9.76054 8.3125,-10.46875 4.81062,-4.68878 9.89322,-8.2831 15.53125,-11.78125 6.33733,-3.05429 12.39289,-7.49752 19.375,-10.75 6.376,-1.97587 12.21501,-7.25292 17.59375,-11.625 4.88462,-4.49794 11.40885,-6.57884 15.59375,-12.09375 5.05592,-2.62269 8.34614,-7.83009 13.09375,-10.75 -0.009,-0.0215 -0.0223,-0.041 -0.0312,-0.0625 -1.42301,-2.54795 -4.99578,-7.11099 -8.9375,-9.875 -3.20054,-4.0353 -9.32653,-6.76739 -12.03125,-9.8125 -3.37263,-2.00247 -6.52976,-4.33181 -9.65625,-7.5 -3.07192,-2.67439 -5.70134,-5.82222 -6.65625,-9.84375 -1.91173,-4.74648 -1.16457,-10.11607 -2.28125,-13.0625 -2.26106,-4.07859 -1.83449,-8.47261 -4.03125,-12.875 -2.44785,-5.59186 -3.58427,-11.20566 -7.125,-16.15625 -0.98397,-4.67497 -5.0836,-8.38255 -3.96875,-13.59375 -1.22355,-4.30302 -2.86971,-6.17337 -3.09375,-10.78125 -1.49936,-3.74575 -0.91159,-8.38002 -4.03125,-11.46875 -0.90827,-1.7452 -1.64846,-3.53225 -2.375,-5.3125 z"
       id="path3818" />
    <path
       style="fill:#e30a17;fill-opacity:1;fill-rule:nonzero;stroke:none"
       d="m 374.00287,461.8902 c -0.36769,0.0158 -0.99391,0.55267 0.125,0.0312 -0.0367,-0.0235 -0.0725,-0.0335 -0.125,-0.0312 z"
       id="path3816" />
    <path
       style="fill:#e30a17;fill-opacity:1;fill-rule:nonzero;stroke:none"
       d="m 120.84662,478.9527 c -16.0423,20.04578 -25.656254,45.45769 -25.656254,73.125 0,32.51531 13.264084,61.90091 34.656254,83.125 l -0.0312,0.0312 14.9375,14.9375 c 4.69111,-1.99461 8.86504,-4.83089 12.8125,-8.28125 5.34573,-3.90901 11.1438,-7.12996 16,-11.5625 2.33221,-2.71755 4.85109,-9.53888 0.84375,-13.25 -2.80658,-5.06271 -3.4837,-10.70369 -3.28125,-16.375 1.0131,-6.1041 4.42616,-11.69068 8.625,-16.28125 2.79164,-4.10619 5.05065,-8.81774 9.96875,-11.78125 4.0417,-4.65579 10.84432,-5.57413 14.53125,-10.34375 4.96076,-2.97795 10.75221,-4.12884 15.03125,-8.21875 3.60433,-1.5204 6.86893,-3.88558 9.96875,-6.21875 2.53149,-3.85446 6.28551,-6.99856 10.625,-8.65625 -18.69058,-14.61164 -41.2363,-23.87951 -63.3125,-32.09375 -16.84057,-6.2349 -32.85569,-14.20458 -48.1875,-23.3125 -2.50768,-1.57823 -5.02372,-3.21606 -7.53125,-4.84375 z"
       id="path3814" />
    <path
       style="fill:#e30a17;fill-opacity:1;fill-rule:nonzero;stroke:none"
       d="m 392.47162,495.23395 c -0.2267,0.0562 0.11829,0.34214 0,0 z"
       id="path3812" />
    <path
       style="fill:#e30a17;fill-opacity:1;fill-rule:nonzero;stroke:none"
       d="m 489.09662,546.7652 c -1.00877,0.45343 -2.00633,0.9061 -3,1.40625 -6.92635,3.9528 -14.74426,5.44193 -22.125,8.34375 -6.96796,0.72095 -13.65449,3.40455 -20.78125,3.03125 -5.56323,-1.09388 -9.45271,2.07511 -14.40625,4 -3.05679,2.92911 -8.08155,7.24198 -11.6875,10.75 -4.48827,4.09119 -9.87304,7.3192 -14.71875,10.59375 -6.60364,5.08571 -8.30687,7.57527 -16.0625,11.6875 -7.45898,2.74483 -13.96461,6.71296 -20.53125,11.03125 -5.06699,3.46665 -11.60388,6.72821 -14.84375,10.28125 -4.10909,2.51556 -6.44848,6.76415 -7.75,11.0625 0.24033,0.84761 0.23933,1.66355 0.0625,2.4375 7.30045,3.76907 14.53715,7.67043 21.59375,11.875 10.64983,7.65722 22.70399,14.59685 30.21875,26 2.98963,4.99119 6.89238,9.10359 11.28125,12.6875 l 46.71875,-46.71875 -0.0312,-0.0312 c 22.27433,-21.32471 36.125,-51.35363 36.125,-84.625 0,-1.27411 -0.0221,-2.54819 -0.0625,-3.8125 z"
       id="path3810" />
    <path
       style="fill:#e30a17;fill-opacity:1;fill-rule:nonzero;stroke:none"
       d="m 246.65912,547.67145 c -1.56023,0.89993 -3.50142,1.3939 -5.03125,1.90625 -3.77396,3.77246 -6.80939,6.82806 -10.375,9.4375 -3.99499,2.06098 -7.68861,5.74904 -12.3125,7.34375 -3.69035,1.88046 -9.17161,3.79601 -12.84375,7.8125 -5.79939,2.22295 -10.68401,6.25618 -14.84375,10.6875 -1.71921,4.35221 -5.62615,7.48968 -7.875,11.53125 -1.87949,4.62806 -3.58156,9.6207 -0.75,14.625 2.17777,3.21464 5.32527,8.72878 4.21875,13.65625 -0.65342,5.86511 -3.74472,11.61222 -8.875,14.84375 -4.18,4.70046 -11.72269,7.54004 -16.75,12.15625 -2.67813,2.61485 -5.78133,4.36576 -8.90625,6.0625 l 139.125,139.125 107.75,-107.75 c -0.88954,-0.72676 -1.76673,-1.48225 -2.625,-2.25 -9.62332,-9.84308 -16.4404,-23.42371 -30.15625,-30.125 -12.84149,-9.01849 -26.86596,-16.22416 -40.96875,-23.21875 -17.57022,-9.5061 -36.91022,-16.32516 -52.28125,-29.21875 -11.12911,-6.30764 -18.0872,-18.58176 -18.0625,-31.15625 -2.56767,-8.49097 -4.33283,-17.63175 -8.4375,-25.46875 z"
       id="path3808" />
    <path
       style="fill:#e30a17;fill-opacity:1;fill-rule:nonzero;stroke:none"
       d="m 233.09662,553.67145 c 1.78824,0.42059 1.9545,0.0264 0,0 z"
       id="path3806" />
    <path
       style="fill:#e30a17;fill-opacity:1;fill-rule:nonzero;stroke:none"
       d="m 210.97162,565.2652 c 0.20644,1.25301 0.29462,0.14999 0,0 z"
       id="path3804" />
    <path
       style="fill:#e30a17;fill-opacity:1;fill-rule:nonzero;stroke:none"
       d="m 406.94037,569.85895 c -0.32795,0.15704 0.22358,-0.0307 0,0 z"
       id="path3802" />
    <path
       style="fill:#e30a17;fill-opacity:1;fill-rule:nonzero;stroke:none"
       d="m 402.22162,579.7027 c 0.0744,0.15129 0.3084,0.32582 0.40625,0.375 -0.028,-0.0407 -0.1151,-0.15749 -0.40625,-0.375 z"
       id="path3800" />
    <path
       style="fill:#e30a17;fill-opacity:1;fill-rule:nonzero;stroke:none"
       d="m 383.31537,596.79645 c 0.67892,0.19998 0.8863,0.004 0,0 z"
       id="path3798" />
    <path
       style="fill:#e30a17;fill-opacity:1;fill-rule:nonzero;stroke:none"
       d="m 173.94037,602.2652 c 0.28434,0.4741 2.95763,1.02426 0,0 z"
       id="path3796" />
    <path
       style="fill:#e30a17;fill-opacity:1;fill-rule:nonzero;stroke:none"
       d="m 346.37787,621.5152 c -2.02295,0.6569 -0.47331,0.42575 0,0 z"
       id="path3794" />
    <path
       style="fill:#e30a17;fill-opacity:1;fill-rule:nonzero;stroke:none"
       d="m 177.56537,622.8277 c 0.24566,0.74411 0.43023,0.38185 0,0 z"
       id="path3792" />
    <path
       style="fill:#e30a17;fill-opacity:1;fill-rule:nonzero;stroke:none"
       d="m 182.25287,627.5152 c 1.54815,2.57438 0.61405,0.24774 0,0 z"
       id="path3790" />
    <path
       style="fill:#e30a17;fill-opacity:1;fill-rule:nonzero;stroke:none"
       d="m 146.56537,650.2652 c -0.67327,0.0963 1.53179,0.22515 0,0 z"
       id="rect2816" />
  </g>
</svg>
